<?xml version="1.0" encoding="UTF-8" standalone="no"?><svg xmlns="http://www.w3.org/2000/svg" xmlns:xlink="http://www.w3.org/1999/xlink" contentScriptType="application/ecmascript" contentStyleType="text/css" height="1666px" preserveAspectRatio="none" style="width:1721px;height:1666px;" version="1.1" viewBox="0 0 1721 1666" width="1721px" zoomAndPan="magnify"><defs><filter height="300%" id="f1m0knsztsus4v" width="300%" x="-1" y="-1"><feGaussianBlur result="blurOut" stdDeviation="2.0"/><feColorMatrix in="blurOut" result="blurOut2" type="matrix" values="0 0 0 0 0 0 0 0 0 0 0 0 0 0 0 0 0 0 .4 0"/><feOffset dx="4.0" dy="4.0" in="blurOut2" result="blurOut3"/><feBlend in="SourceGraphic" in2="blurOut3" mode="normal"/></filter></defs><g><rect fill="#90EE90" height="1623.7051" style="stroke:#A80036;stroke-width:1.0;" width="880.5" x="16" y="20.7773"/><text fill="#000000" font-family="sans-serif" font-size="25" font-weight="bold" lengthAdjust="spacing" textLength="148" x="382.25" y="44.9473">Spring Boot</text><rect fill="#FFC0CB" height="1623.7051" style="stroke:#A80036;stroke-width:1.0;" width="456.5" x="1173" y="20.7773"/><text fill="#000000" font-family="sans-serif" font-size="25" font-weight="bold" lengthAdjust="spacing" textLength="234" x="1284.25" y="44.9473">Spring Framework</text><rect fill="#FFFFFF" filter="url(#f1m0knsztsus4v)" height="105.9316" style="stroke:#A80036;stroke-width:1.0;" width="10" x="85.5" y="153.3301"/><rect fill="#FFFFFF" filter="url(#f1m0knsztsus4v)" height="148.5527" style="stroke:#A80036;stroke-width:1.0;" width="10" x="85.5" y="598.0566"/><rect fill="#FFFFFF" filter="url(#f1m0knsztsus4v)" height="123.2422" style="stroke:#A80036;stroke-width:1.0;" width="10" x="85.5" y="807.2305"/><rect fill="#FFFFFF" filter="url(#f1m0knsztsus4v)" height="211.8633" style="stroke:#A80036;stroke-width:1.0;" width="10" x="505.5" y="318.5723"/><rect fill="#0000FF" filter="url(#f1m0knsztsus4v)" height="29.3105" style="stroke:#A80036;stroke-width:1.0;" width="10" x="760.5" y="347.8828"/><rect fill="#0000FF" filter="url(#f1m0knsztsus4v)" height="470.0371" style="stroke:#A80036;stroke-width:1.0;" width="10" x="956.5" y="716.6094"/><rect fill="#FFFFFF" filter="url(#f1m0knsztsus4v)" height="567.9004" style="stroke:#A80036;stroke-width:1.0;" width="10" x="1247.5" y="1006.0938"/><rect fill="#0000FF" filter="url(#f1m0knsztsus4v)" height="440.3477" style="stroke:#A80036;stroke-width:1.0;" width="10" x="1493.5" y="1156.6465"/><rect fill="#FFFFFF" filter="url(#f1m0knsztsus4v)" height="438.7266" style="stroke:#000000;stroke-width:2.0;" width="956.5" x="10" y="106.709"/><rect fill="#FFFFFF" filter="url(#f1m0knsztsus4v)" height="195.1738" style="stroke:#000000;stroke-width:2.0;" width="1328" x="10" y="559.4355"/><rect fill="#FFFFFF" filter="url(#f1m0knsztsus4v)" height="176.8633" style="stroke:#000000;stroke-width:2.0;" width="1484.5" x="10" y="768.6094"/><rect fill="#FFFFFF" filter="url(#f1m0knsztsus4v)" height="235.1738" style="stroke:#000000;stroke-width:2.0;" width="734.5" x="901" y="959.4727"/><rect fill="#FFFFFF" filter="url(#f1m0knsztsus4v)" height="380.3477" style="stroke:#000000;stroke-width:2.0;" width="803.5" x="901" y="1208.6465"/><line style="stroke:#A80036;stroke-width:1.0;stroke-dasharray:5.0,5.0;" x1="90" x2="90" y1="89.709" y2="1605.9941"/><line style="stroke:#A80036;stroke-width:1.0;stroke-dasharray:5.0,5.0;" x1="321.5" x2="321.5" y1="89.709" y2="1605.9941"/><line style="stroke:#A80036;stroke-width:1.0;stroke-dasharray:5.0,5.0;" x1="510.5" x2="510.5" y1="89.709" y2="1605.9941"/><line style="stroke:#A80036;stroke-width:1.0;stroke-dasharray:5.0,5.0;" x1="765.5" x2="765.5" y1="89.709" y2="1605.9941"/><line style="stroke:#A80036;stroke-width:1.0;stroke-dasharray:5.0,5.0;" x1="961" x2="961" y1="89.709" y2="1605.9941"/><line style="stroke:#A80036;stroke-width:1.0;stroke-dasharray:5.0,5.0;" x1="1252" x2="1252" y1="89.709" y2="1605.9941"/><line style="stroke:#A80036;stroke-width:1.0;stroke-dasharray:5.0,5.0;" x1="1498.5" x2="1498.5" y1="89.709" y2="1605.9941"/><rect fill="#FEFECE" filter="url(#f1m0knsztsus4v)" height="30.4883" style="stroke:#A80036;stroke-width:1.5;" width="137" x="20" y="54.2207"/><text fill="#000000" font-family="sans-serif" font-size="14" lengthAdjust="spacing" textLength="123" x="27" y="74.7559">SpringApplication</text><rect fill="#FEFECE" filter="url(#f1m0knsztsus4v)" height="30.4883" style="stroke:#A80036;stroke-width:1.5;" width="137" x="20" y="1604.9941"/><text fill="#000000" font-family="sans-serif" font-size="14" lengthAdjust="spacing" textLength="123" x="27" y="1625.5293">SpringApplication</text><rect fill="#FEFECE" filter="url(#f1m0knsztsus4v)" height="30.4883" style="stroke:#A80036;stroke-width:1.5;" width="146" x="246.5" y="54.2207"/><text fill="#000000" font-family="sans-serif" font-size="14" lengthAdjust="spacing" textLength="132" x="253.5" y="74.7559">ApplicationListener</text><rect fill="#FEFECE" filter="url(#f1m0knsztsus4v)" height="30.4883" style="stroke:#A80036;stroke-width:1.5;" width="146" x="246.5" y="1604.9941"/><text fill="#000000" font-family="sans-serif" font-size="14" lengthAdjust="spacing" textLength="132" x="253.5" y="1625.5293">ApplicationListener</text><rect fill="#FEFECE" filter="url(#f1m0knsztsus4v)" height="30.4883" style="stroke:#A80036;stroke-width:1.5;" width="204" x="406.5" y="54.2207"/><text fill="#000000" font-family="sans-serif" font-size="14" lengthAdjust="spacing" textLength="190" x="413.5" y="74.7559">EventPublishingRunListener</text><rect fill="#FEFECE" filter="url(#f1m0knsztsus4v)" height="30.4883" style="stroke:#A80036;stroke-width:1.5;" width="204" x="406.5" y="1604.9941"/><text fill="#000000" font-family="sans-serif" font-size="14" lengthAdjust="spacing" textLength="190" x="413.5" y="1625.5293">EventPublishingRunListener</text><rect fill="#ADD8E6" filter="url(#f1m0knsztsus4v)" height="30.4883" style="stroke:#A80036;stroke-width:1.5;" width="250" x="638.5" y="54.2207"/><text fill="#000000" font-family="sans-serif" font-size="14" lengthAdjust="spacing" textLength="236" x="645.5" y="74.7559">SimpleApplicationEventMulticaster</text><rect fill="#ADD8E6" filter="url(#f1m0knsztsus4v)" height="30.4883" style="stroke:#A80036;stroke-width:1.5;" width="250" x="638.5" y="1604.9941"/><text fill="#000000" font-family="sans-serif" font-size="14" lengthAdjust="spacing" textLength="236" x="645.5" y="1625.5293">SimpleApplicationEventMulticaster</text><rect fill="#FEFECE" filter="url(#f1m0knsztsus4v)" height="30.4883" style="stroke:#A80036;stroke-width:1.5;" width="97" x="911" y="54.2207"/><text fill="#000000" font-family="sans-serif" font-size="14" lengthAdjust="spacing" textLength="83" x="918" y="74.7559">BeanFactory</text><rect fill="#FEFECE" filter="url(#f1m0knsztsus4v)" height="30.4883" style="stroke:#A80036;stroke-width:1.5;" width="97" x="911" y="1604.9941"/><text fill="#000000" font-family="sans-serif" font-size="14" lengthAdjust="spacing" textLength="83" x="918" y="1625.5293">BeanFactory</text><rect fill="#FEFECE" filter="url(#f1m0knsztsus4v)" height="30.4883" style="stroke:#A80036;stroke-width:1.5;" width="147" x="1177" y="54.2207"/><text fill="#000000" font-family="sans-serif" font-size="14" lengthAdjust="spacing" textLength="133" x="1184" y="74.7559">ApplicationContext</text><rect fill="#FEFECE" filter="url(#f1m0knsztsus4v)" height="30.4883" style="stroke:#A80036;stroke-width:1.5;" width="147" x="1177" y="1604.9941"/><text fill="#000000" font-family="sans-serif" font-size="14" lengthAdjust="spacing" textLength="133" x="1184" y="1625.5293">ApplicationContext</text><rect fill="#ADD8E6" filter="url(#f1m0knsztsus4v)" height="30.4883" style="stroke:#A80036;stroke-width:1.5;" width="250" x="1371.5" y="54.2207"/><text fill="#000000" font-family="sans-serif" font-size="14" lengthAdjust="spacing" textLength="236" x="1378.5" y="74.7559">SimpleApplicationEventMulticaster</text><rect fill="#ADD8E6" filter="url(#f1m0knsztsus4v)" height="30.4883" style="stroke:#A80036;stroke-width:1.5;" width="250" x="1371.5" y="1604.9941"/><text fill="#000000" font-family="sans-serif" font-size="14" lengthAdjust="spacing" textLength="236" x="1378.5" y="1625.5293">SimpleApplicationEventMulticaster</text><rect fill="#FFFFFF" filter="url(#f1m0knsztsus4v)" height="105.9316" style="stroke:#A80036;stroke-width:1.0;" width="10" x="85.5" y="153.3301"/><rect fill="#FFFFFF" filter="url(#f1m0knsztsus4v)" height="148.5527" style="stroke:#A80036;stroke-width:1.0;" width="10" x="85.5" y="598.0566"/><rect fill="#FFFFFF" filter="url(#f1m0knsztsus4v)" height="123.2422" style="stroke:#A80036;stroke-width:1.0;" width="10" x="85.5" y="807.2305"/><rect fill="#FFFFFF" filter="url(#f1m0knsztsus4v)" height="211.8633" style="stroke:#A80036;stroke-width:1.0;" width="10" x="505.5" y="318.5723"/><rect fill="#0000FF" filter="url(#f1m0knsztsus4v)" height="29.3105" style="stroke:#A80036;stroke-width:1.0;" width="10" x="760.5" y="347.8828"/><rect fill="#0000FF" filter="url(#f1m0knsztsus4v)" height="470.0371" style="stroke:#A80036;stroke-width:1.0;" width="10" x="956.5" y="716.6094"/><rect fill="#FFFFFF" filter="url(#f1m0knsztsus4v)" height="567.9004" style="stroke:#A80036;stroke-width:1.0;" width="10" x="1247.5" y="1006.0938"/><rect fill="#0000FF" filter="url(#f1m0knsztsus4v)" height="440.3477" style="stroke:#A80036;stroke-width:1.0;" width="10" x="1493.5" y="1156.6465"/><path d="M10,106.709 L270,106.709 L270,113.709 L260,123.709 L10,123.709 L10,106.709 " fill="#FFD700" style="stroke:#000000;stroke-width:1.0;"/><rect fill="none" height="438.7266" style="stroke:#000000;stroke-width:2.0;" width="956.5" x="10" y="106.709"/><text fill="#000000" font-family="sans-serif" font-size="13" font-weight="bold" lengthAdjust="spacing" textLength="215" x="25" y="120.2773">① Spring Boot 监听器添加到广播器</text><line style="stroke:#A80036;stroke-width:1.0;" x1="90.5" x2="137.5" y1="140.3301" y2="140.3301"/><line style="stroke:#A80036;stroke-width:1.0;" x1="137.5" x2="137.5" y1="140.3301" y2="153.3301"/><line style="stroke:#A80036;stroke-width:1.0;" x1="96.5" x2="137.5" y1="153.3301" y2="153.3301"/><polygon fill="#A80036" points="106.5,149.3301,96.5,153.3301,106.5,157.3301,102.5,153.3301" style="stroke:#A80036;stroke-width:1.0;"/><text fill="#000000" font-family="sans-serif" font-size="13" font-weight="bold" lengthAdjust="spacing" textLength="21" x="102.5" y="135.5879">1.1</text><text fill="#000000" font-family="sans-serif" font-size="13" lengthAdjust="spacing" textLength="54" x="127.5" y="135.5879">initialize</text><polygon fill="#A80036" points="309.5,183.6406,319.5,187.6406,309.5,191.6406,313.5,187.6406" style="stroke:#A80036;stroke-width:1.0;"/><line style="stroke:#A80036;stroke-width:1.0;" x1="95.5" x2="315.5" y1="187.6406" y2="187.6406"/><text fill="#000000" font-family="sans-serif" font-size="13" font-weight="bold" lengthAdjust="spacing" textLength="21" x="102.5" y="182.8984">1.2</text><text fill="#000000" font-family="sans-serif" font-size="13" lengthAdjust="spacing" textLength="177" x="127.5" y="182.8984">getSpringFactoriesInstances</text><line style="stroke:#A80036;stroke-width:1.0;" x1="321.5" x2="363.5" y1="216.9512" y2="216.9512"/><line style="stroke:#A80036;stroke-width:1.0;" x1="363.5" x2="363.5" y1="216.9512" y2="229.9512"/><line style="stroke:#A80036;stroke-width:1.0;" x1="322.5" x2="363.5" y1="229.9512" y2="229.9512"/><polygon fill="#A80036" points="332.5,225.9512,322.5,229.9512,332.5,233.9512,328.5,229.9512" style="stroke:#A80036;stroke-width:1.0;"/><text fill="#000000" font-family="sans-serif" font-size="13" font-weight="bold" lengthAdjust="spacing" textLength="21" x="328.5" y="212.209">1.3</text><text fill="#000000" font-family="sans-serif" font-size="13" lengthAdjust="spacing" textLength="99" x="353.5" y="212.209">spring.factories</text><polygon fill="#A80036" points="101.5,255.2617,91.5,259.2617,101.5,263.2617,97.5,259.2617" style="stroke:#A80036;stroke-width:1.0;"/><line style="stroke:#A80036;stroke-width:1.0;" x1="95.5" x2="320.5" y1="259.2617" y2="259.2617"/><text fill="#000000" font-family="sans-serif" font-size="13" font-weight="bold" lengthAdjust="spacing" textLength="21" x="107.5" y="254.5195">1.4</text><text fill="#000000" font-family="sans-serif" font-size="13" lengthAdjust="spacing" textLength="112" x="132.5" y="254.5195">赋值 this.listeners</text><polygon fill="#A80036" points="493.5,314.5723,503.5,318.5723,493.5,322.5723,497.5,318.5723" style="stroke:#A80036;stroke-width:1.0;"/><line style="stroke:#A80036;stroke-width:1.0;" x1="90.5" x2="499.5" y1="318.5723" y2="318.5723"/><text fill="#000000" font-family="sans-serif" font-size="13" font-weight="bold" lengthAdjust="spacing" textLength="21" x="97.5" y="313.8301">2.1</text><text fill="#000000" font-family="sans-serif" font-size="13" lengthAdjust="spacing" textLength="131" x="122.5" y="313.8301">getRunListeners 构造</text><polygon fill="#A80036" points="748.5,343.8828,758.5,347.8828,748.5,351.8828,752.5,347.8828" style="stroke:#A80036;stroke-width:1.0;"/><line style="stroke:#A80036;stroke-width:1.0;" x1="515.5" x2="754.5" y1="347.8828" y2="347.8828"/><text fill="#000000" font-family="sans-serif" font-size="13" font-weight="bold" lengthAdjust="spacing" textLength="21" x="522.5" y="343.1406">2.2</text><text fill="#000000" font-family="sans-serif" font-size="13" lengthAdjust="spacing" textLength="25" x="547.5" y="343.1406">new</text><polygon fill="#A80036" points="526.5,373.1934,516.5,377.1934,526.5,381.1934,522.5,377.1934" style="stroke:#A80036;stroke-width:1.0;"/><line style="stroke:#A80036;stroke-width:1.0;stroke-dasharray:2.0,2.0;" x1="520.5" x2="764.5" y1="377.1934" y2="377.1934"/><text fill="#000000" font-family="sans-serif" font-size="13" font-weight="bold" lengthAdjust="spacing" textLength="21" x="532.5" y="372.4512">2.3</text><text fill="#000000" font-family="sans-serif" font-size="13" lengthAdjust="spacing" textLength="129" x="557.5" y="372.4512">赋值 this.multicaster</text><polygon fill="#A80036" points="101.5,432.5039,91.5,436.5039,101.5,440.5039,97.5,436.5039" style="stroke:#A80036;stroke-width:1.0;"/><line style="stroke:#A80036;stroke-width:1.0;" x1="95.5" x2="504.5" y1="436.5039" y2="436.5039"/><text fill="#000000" font-family="sans-serif" font-size="13" font-weight="bold" lengthAdjust="spacing" textLength="21" x="107.5" y="431.7617">3.1</text><text fill="#000000" font-family="sans-serif" font-size="13" lengthAdjust="spacing" textLength="77" x="132.5" y="431.7617">getListeners</text><polygon fill="#A80036" points="493.5,461.8145,503.5,465.8145,493.5,469.8145,497.5,465.8145" style="stroke:#A80036;stroke-width:1.0;"/><line style="stroke:#A80036;stroke-width:1.0;" x1="90.5" x2="499.5" y1="465.8145" y2="465.8145"/><text fill="#000000" font-family="sans-serif" font-size="13" font-weight="bold" lengthAdjust="spacing" textLength="21" x="97.5" y="461.0723">3.2</text><text fill="#000000" font-family="sans-serif" font-size="13" lengthAdjust="spacing" textLength="112" x="122.5" y="461.0723">返回 this.listeners</text><polygon fill="#A80036" points="753.5,491.125,763.5,495.125,753.5,499.125,757.5,495.125" style="stroke:#A80036;stroke-width:1.0;"/><line style="stroke:#A80036;stroke-width:1.0;" x1="515.5" x2="759.5" y1="495.125" y2="495.125"/><text fill="#000000" font-family="sans-serif" font-size="13" font-weight="bold" lengthAdjust="spacing" textLength="21" x="522.5" y="490.3828">3.3</text><text fill="#000000" font-family="sans-serif" font-size="13" lengthAdjust="spacing" textLength="201" x="547.5" y="490.3828">循环调用 addApplicationListener</text><line style="stroke:#A80036;stroke-width:1.0;" x1="765.5" x2="807.5" y1="529.4355" y2="529.4355"/><line style="stroke:#A80036;stroke-width:1.0;" x1="807.5" x2="807.5" y1="529.4355" y2="542.4355"/><line style="stroke:#A80036;stroke-width:1.0;" x1="760.5" x2="807.5" y1="542.4355" y2="542.4355"/><polygon fill="#A80036" points="770.5,538.4355,760.5,542.4355,770.5,546.4355,766.5,542.4355" style="stroke:#A80036;stroke-width:1.0;"/><text fill="#000000" font-family="sans-serif" font-size="13" font-weight="bold" lengthAdjust="spacing" textLength="21" x="772.5" y="524.6934">3.4</text><text fill="#000000" font-family="sans-serif" font-size="13" lengthAdjust="spacing" textLength="157" x="797.5" y="524.6934">this.defaultRetriever 追加</text><path d="M10,559.4355 L236,559.4355 L236,566.4355 L226,576.4355 L10,576.4355 L10,559.4355 " fill="#FFD700" style="stroke:#000000;stroke-width:1.0;"/><rect fill="none" height="195.1738" style="stroke:#000000;stroke-width:2.0;" width="1328" x="10" y="559.4355"/><text fill="#000000" font-family="sans-serif" font-size="13" font-weight="bold" lengthAdjust="spacing" textLength="181" x="25" y="573.0039">② 广播器注册到 BeanFactory</text><polygon fill="#A80036" points="498.5,594.0566,508.5,598.0566,498.5,602.0566,502.5,598.0566" style="stroke:#A80036;stroke-width:1.0;"/><line style="stroke:#A80036;stroke-width:1.0;" x1="95.5" x2="504.5" y1="598.0566" y2="598.0566"/><text fill="#000000" font-family="sans-serif" font-size="13" font-weight="bold" lengthAdjust="spacing" textLength="21" x="102.5" y="593.3145">4.1</text><text fill="#000000" font-family="sans-serif" font-size="13" lengthAdjust="spacing" textLength="102" x="127.5" y="593.3145">contextPrepared</text><polygon fill="#A80036" points="1240.5,623.3672,1250.5,627.3672,1240.5,631.3672,1244.5,627.3672" style="stroke:#A80036;stroke-width:1.0;"/><line style="stroke:#A80036;stroke-width:1.0;" x1="510.5" x2="1246.5" y1="627.3672" y2="627.3672"/><text fill="#000000" font-family="sans-serif" font-size="13" font-weight="bold" lengthAdjust="spacing" textLength="21" x="517.5" y="622.625">4.2</text><text fill="#000000" font-family="sans-serif" font-size="13" lengthAdjust="spacing" textLength="224" x="542.5" y="622.625">registerApplicationEventMulticaster</text><polygon fill="#A80036" points="972.5,652.6777,962.5,656.6777,972.5,660.6777,968.5,656.6777" style="stroke:#A80036;stroke-width:1.0;"/><line style="stroke:#A80036;stroke-width:1.0;" x1="966.5" x2="1251.5" y1="656.6777" y2="656.6777"/><text fill="#000000" font-family="sans-serif" font-size="13" font-weight="bold" lengthAdjust="spacing" textLength="21" x="978.5" y="651.9355">4.3</text><text fill="#000000" font-family="sans-serif" font-size="13" lengthAdjust="spacing" textLength="95" x="1003.5" y="651.9355">getBeanFactory</text><polygon fill="#0000FF" points="944.5,712.6094,954.5,716.6094,944.5,720.6094,948.5,716.6094" style="stroke:#0000FF;stroke-width:1.0;"/><line style="stroke:#0000FF;stroke-width:1.0;" x1="510.5" x2="950.5" y1="716.6094" y2="716.6094"/><text fill="#000000" font-family="sans-serif" font-size="13" font-weight="bold" lengthAdjust="spacing" textLength="21" x="517.5" y="696.5566">4.4</text><text fill="#000000" font-family="sans-serif" font-size="13" lengthAdjust="spacing" textLength="137" x="542.5" y="681.2461">调用 registerSingleton</text><text fill="#000000" font-family="sans-serif" font-size="13" lengthAdjust="spacing" textLength="235" x="542.5" y="696.5566">将 SimpleApplicationEventMulticaster</text><text fill="#000000" font-family="sans-serif" font-size="13" lengthAdjust="spacing" textLength="118" x="542.5" y="711.8672">注册到 BeanFactory</text><path d="M10,768.6094 L364,768.6094 L364,775.6094 L354,785.6094 L10,785.6094 L10,768.6094 " fill="#FFD700" style="stroke:#000000;stroke-width:1.0;"/><rect fill="none" height="176.8633" style="stroke:#000000;stroke-width:2.0;" width="1484.5" x="10" y="768.6094"/><text fill="#000000" font-family="sans-serif" font-size="13" font-weight="bold" lengthAdjust="spacing" textLength="309" x="25" y="782.1777">③ Spring Boot 监听器添加到 ApplicationContext</text><polygon fill="#A80036" points="498.5,803.2305,508.5,807.2305,498.5,811.2305,502.5,807.2305" style="stroke:#A80036;stroke-width:1.0;"/><line style="stroke:#A80036;stroke-width:1.0;" x1="95.5" x2="504.5" y1="807.2305" y2="807.2305"/><text fill="#000000" font-family="sans-serif" font-size="13" font-weight="bold" lengthAdjust="spacing" textLength="21" x="102.5" y="802.4883">5.1</text><text fill="#000000" font-family="sans-serif" font-size="13" lengthAdjust="spacing" textLength="93" x="127.5" y="802.4883">contextLoaded</text><polygon fill="#A80036" points="106.5,832.541,96.5,836.541,106.5,840.541,102.5,836.541" style="stroke:#A80036;stroke-width:1.0;"/><line style="stroke:#A80036;stroke-width:1.0;" x1="100.5" x2="509.5" y1="836.541" y2="836.541"/><text fill="#000000" font-family="sans-serif" font-size="13" font-weight="bold" lengthAdjust="spacing" textLength="21" x="112.5" y="831.7988">5.2</text><text fill="#000000" font-family="sans-serif" font-size="13" lengthAdjust="spacing" textLength="77" x="137.5" y="831.7988">getListeners</text><polygon fill="#A80036" points="498.5,861.8516,508.5,865.8516,498.5,869.8516,502.5,865.8516" style="stroke:#A80036;stroke-width:1.0;"/><line style="stroke:#A80036;stroke-width:1.0;" x1="95.5" x2="504.5" y1="865.8516" y2="865.8516"/><text fill="#000000" font-family="sans-serif" font-size="13" font-weight="bold" lengthAdjust="spacing" textLength="21" x="102.5" y="861.1094">5.3</text><text fill="#000000" font-family="sans-serif" font-size="13" lengthAdjust="spacing" textLength="112" x="127.5" y="861.1094">返回 this.listeners</text><polygon fill="#A80036" points="1240.5,891.1621,1250.5,895.1621,1240.5,899.1621,1244.5,895.1621" style="stroke:#A80036;stroke-width:1.0;"/><line style="stroke:#A80036;stroke-width:1.0;" x1="510.5" x2="1246.5" y1="895.1621" y2="895.1621"/><text fill="#000000" font-family="sans-serif" font-size="13" font-weight="bold" lengthAdjust="spacing" textLength="21" x="517.5" y="890.4199">5.4</text><text fill="#000000" font-family="sans-serif" font-size="13" lengthAdjust="spacing" textLength="201" x="542.5" y="890.4199">循环调用 addApplicationListener</text><line style="stroke:#A80036;stroke-width:1.0;" x1="1252.5" x2="1294.5" y1="929.4727" y2="929.4727"/><line style="stroke:#A80036;stroke-width:1.0;" x1="1294.5" x2="1294.5" y1="929.4727" y2="942.4727"/><line style="stroke:#A80036;stroke-width:1.0;" x1="1247.5" x2="1294.5" y1="942.4727" y2="942.4727"/><polygon fill="#A80036" points="1257.5,938.4727,1247.5,942.4727,1257.5,946.4727,1253.5,942.4727" style="stroke:#A80036;stroke-width:1.0;"/><text fill="#000000" font-family="sans-serif" font-size="13" font-weight="bold" lengthAdjust="spacing" textLength="21" x="1259.5" y="924.7305">5.5</text><text fill="#000000" font-family="sans-serif" font-size="13" lengthAdjust="spacing" textLength="198" x="1284.5" y="924.7305">添加到 this.applicationListeners</text><path d="M901,959.4727 L1114,959.4727 L1114,966.4727 L1104,976.4727 L901,976.4727 L901,959.4727 " fill="#FFD700" style="stroke:#000000;stroke-width:1.0;"/><rect fill="none" height="235.1738" style="stroke:#000000;stroke-width:2.0;" width="734.5" x="901" y="959.4727"/><text fill="#000000" font-family="sans-serif" font-size="13" font-weight="bold" lengthAdjust="spacing" textLength="168" x="916" y="973.041">④ BeanFactory 获取广播器</text><line style="stroke:#A80036;stroke-width:1.0;" x1="1252.5" x2="1299.5" y1="993.0938" y2="993.0938"/><line style="stroke:#A80036;stroke-width:1.0;" x1="1299.5" x2="1299.5" y1="993.0938" y2="1006.0938"/><line style="stroke:#A80036;stroke-width:1.0;" x1="1258.5" x2="1299.5" y1="1006.0938" y2="1006.0938"/><polygon fill="#A80036" points="1268.5,1002.0938,1258.5,1006.0938,1268.5,1010.0938,1264.5,1006.0938" style="stroke:#A80036;stroke-width:1.0;"/><text fill="#000000" font-family="sans-serif" font-size="13" font-weight="bold" lengthAdjust="spacing" textLength="21" x="1264.5" y="988.3516">6.1</text><text fill="#000000" font-family="sans-serif" font-size="13" lengthAdjust="spacing" textLength="44" x="1289.5" y="988.3516">refresh</text><line style="stroke:#A80036;stroke-width:1.0;" x1="1257.5" x2="1299.5" y1="1040.4043" y2="1040.4043"/><line style="stroke:#A80036;stroke-width:1.0;" x1="1299.5" x2="1299.5" y1="1040.4043" y2="1053.4043"/><line style="stroke:#A80036;stroke-width:1.0;" x1="1258.5" x2="1299.5" y1="1053.4043" y2="1053.4043"/><polygon fill="#A80036" points="1268.5,1049.4043,1258.5,1053.4043,1268.5,1057.4043,1264.5,1053.4043" style="stroke:#A80036;stroke-width:1.0;"/><text fill="#000000" font-family="sans-serif" font-size="13" font-weight="bold" lengthAdjust="spacing" textLength="21" x="1264.5" y="1035.6621">6.2</text><text fill="#000000" font-family="sans-serif" font-size="13" lengthAdjust="spacing" textLength="197" x="1289.5" y="1035.6621">initApplicationEventMulticaster</text><polygon fill="#A80036" points="977.5,1094.0254,967.5,1098.0254,977.5,1102.0254,973.5,1098.0254" style="stroke:#A80036;stroke-width:1.0;"/><line style="stroke:#A80036;stroke-width:1.0;" x1="971.5" x2="1246.5" y1="1098.0254" y2="1098.0254"/><text fill="#000000" font-family="sans-serif" font-size="13" font-weight="bold" lengthAdjust="spacing" textLength="21" x="983.5" y="1085.6279">6.3</text><text fill="#000000" font-family="sans-serif" font-size="13" lengthAdjust="spacing" textLength="109" x="1008.5" y="1077.9727">调用 getBean 获得</text><text fill="#000000" font-family="sans-serif" font-size="13" lengthAdjust="spacing" textLength="218" x="1008.5" y="1093.2832">SimpleApplicationEventMulticaster</text><polygon fill="#0000FF" points="1235.5,1123.3359,1245.5,1127.3359,1235.5,1131.3359,1239.5,1127.3359" style="stroke:#0000FF;stroke-width:1.0;"/><line style="stroke:#0000FF;stroke-width:1.0;" x1="966.5" x2="1241.5" y1="1127.3359" y2="1127.3359"/><text fill="#000000" font-family="sans-serif" font-size="13" font-weight="bold" lengthAdjust="spacing" textLength="21" x="973.5" y="1122.5938">6.4</text><text fill="#000000" font-family="sans-serif" font-size="13" lengthAdjust="spacing" textLength="232" x="998.5" y="1122.5938">赋值 this.applicationEventMulticaster</text><polygon fill="#0000FF" points="1481.5,1152.6465,1491.5,1156.6465,1481.5,1160.6465,1485.5,1156.6465" style="stroke:#0000FF;stroke-width:1.0;"/><line style="stroke:#0000FF;stroke-width:1.0;" x1="1257.5" x2="1487.5" y1="1156.6465" y2="1156.6465"/><text fill="#000000" font-family="sans-serif" font-size="13" font-weight="bold" lengthAdjust="spacing" textLength="21" x="1264.5" y="1151.9043">6.5</text><text fill="#000000" font-family="sans-serif" font-size="13" lengthAdjust="spacing" textLength="122" x="1289.5" y="1151.9043">从 BeanFactory 获得</text><path d="M901,1208.6465 L1128,1208.6465 L1128,1215.6465 L1118,1225.6465 L901,1225.6465 L901,1208.6465 " fill="#FFD700" style="stroke:#000000;stroke-width:1.0;"/><rect fill="none" height="380.3477" style="stroke:#000000;stroke-width:2.0;" width="803.5" x="901" y="1208.6465"/><text fill="#000000" font-family="sans-serif" font-size="13" font-weight="bold" lengthAdjust="spacing" textLength="182" x="916" y="1222.2148">⑤ Spring 监听器添加到广播器</text><line style="stroke:#A80036;stroke-width:1.0;" x1="1257.5" x2="1299.5" y1="1247.2676" y2="1247.2676"/><line style="stroke:#A80036;stroke-width:1.0;" x1="1299.5" x2="1299.5" y1="1247.2676" y2="1260.2676"/><line style="stroke:#A80036;stroke-width:1.0;" x1="1258.5" x2="1299.5" y1="1260.2676" y2="1260.2676"/><polygon fill="#A80036" points="1268.5,1256.2676,1258.5,1260.2676,1268.5,1264.2676,1264.5,1260.2676" style="stroke:#A80036;stroke-width:1.0;"/><text fill="#000000" font-family="sans-serif" font-size="13" font-weight="bold" lengthAdjust="spacing" textLength="21" x="1264.5" y="1242.5254">7.1</text><text fill="#000000" font-family="sans-serif" font-size="13" lengthAdjust="spacing" textLength="105" x="1289.5" y="1242.5254">registerListeners</text><line style="stroke:#A80036;stroke-width:1.0;" x1="1257.5" x2="1299.5" y1="1304.8887" y2="1304.8887"/><line style="stroke:#A80036;stroke-width:1.0;" x1="1299.5" x2="1299.5" y1="1304.8887" y2="1317.8887"/><line style="stroke:#A80036;stroke-width:1.0;" x1="1258.5" x2="1299.5" y1="1317.8887" y2="1317.8887"/><polygon fill="#A80036" points="1268.5,1313.8887,1258.5,1317.8887,1268.5,1321.8887,1264.5,1317.8887" style="stroke:#A80036;stroke-width:1.0;"/><text fill="#000000" font-family="sans-serif" font-size="13" font-weight="bold" lengthAdjust="spacing" textLength="21" x="1264.5" y="1292.4912">7.2</text><text fill="#000000" font-family="sans-serif" font-size="13" lengthAdjust="spacing" textLength="149" x="1289.5" y="1284.8359">getApplicationListeners</text><text fill="#000000" font-family="sans-serif" font-size="13" lengthAdjust="spacing" textLength="185" x="1289.5" y="1300.1465">获取 this.applicationListeners</text><polygon fill="#A80036" points="1481.5,1358.5098,1491.5,1362.5098,1481.5,1366.5098,1485.5,1362.5098" style="stroke:#A80036;stroke-width:1.0;"/><line style="stroke:#A80036;stroke-width:1.0;" x1="1257.5" x2="1487.5" y1="1362.5098" y2="1362.5098"/><text fill="#000000" font-family="sans-serif" font-size="13" font-weight="bold" lengthAdjust="spacing" textLength="21" x="1264.5" y="1350.1123">7.3</text><text fill="#000000" font-family="sans-serif" font-size="13" lengthAdjust="spacing" textLength="52" x="1289.5" y="1342.457">循环调用</text><text fill="#000000" font-family="sans-serif" font-size="13" lengthAdjust="spacing" textLength="145" x="1289.5" y="1357.7676">addApplicationListener</text><line style="stroke:#A80036;stroke-width:1.0;" x1="1503.5" x2="1545.5" y1="1391.8203" y2="1391.8203"/><line style="stroke:#A80036;stroke-width:1.0;" x1="1545.5" x2="1545.5" y1="1391.8203" y2="1404.8203"/><line style="stroke:#A80036;stroke-width:1.0;" x1="1504.5" x2="1545.5" y1="1404.8203" y2="1404.8203"/><polygon fill="#A80036" points="1514.5,1400.8203,1504.5,1404.8203,1514.5,1408.8203,1510.5,1404.8203" style="stroke:#A80036;stroke-width:1.0;"/><text fill="#000000" font-family="sans-serif" font-size="13" font-weight="bold" lengthAdjust="spacing" textLength="21" x="1510.5" y="1387.0781">7.4</text><text fill="#000000" font-family="sans-serif" font-size="13" lengthAdjust="spacing" textLength="157" x="1535.5" y="1387.0781">this.defaultRetriever 追加</text><polygon fill="#A80036" points="972.5,1445.4414,962.5,1449.4414,972.5,1453.4414,968.5,1449.4414" style="stroke:#A80036;stroke-width:1.0;"/><line style="stroke:#A80036;stroke-width:1.0;" x1="966.5" x2="1246.5" y1="1449.4414" y2="1449.4414"/><text fill="#000000" font-family="sans-serif" font-size="13" font-weight="bold" lengthAdjust="spacing" textLength="21" x="978.5" y="1437.0439">7.5</text><text fill="#000000" font-family="sans-serif" font-size="13" lengthAdjust="spacing" textLength="142" x="1003.5" y="1429.3887">getBeanNamesForType</text><text fill="#000000" font-family="sans-serif" font-size="13" lengthAdjust="spacing" textLength="167" x="1003.5" y="1444.6992">获取监听器类型的 Bean 名称</text><polygon fill="#A80036" points="1235.5,1490.0625,1245.5,1494.0625,1235.5,1498.0625,1239.5,1494.0625" style="stroke:#A80036;stroke-width:1.0;"/><line style="stroke:#A80036;stroke-width:1.0;" x1="961.5" x2="1241.5" y1="1494.0625" y2="1494.0625"/><text fill="#000000" font-family="sans-serif" font-size="13" font-weight="bold" lengthAdjust="spacing" textLength="21" x="968.5" y="1481.665">7.6</text><text fill="#000000" font-family="sans-serif" font-size="13" lengthAdjust="spacing" textLength="152" x="993.5" y="1474.0098">返回 ApplicationListener</text><text fill="#000000" font-family="sans-serif" font-size="13" lengthAdjust="spacing" textLength="85" x="993.5" y="1489.3203">Bean 名称数组</text><polygon fill="#A80036" points="1481.5,1534.6836,1491.5,1538.6836,1481.5,1542.6836,1485.5,1538.6836" style="stroke:#A80036;stroke-width:1.0;"/><line style="stroke:#A80036;stroke-width:1.0;" x1="1257.5" x2="1487.5" y1="1538.6836" y2="1538.6836"/><text fill="#000000" font-family="sans-serif" font-size="13" font-weight="bold" lengthAdjust="spacing" textLength="21" x="1264.5" y="1526.2861">7.7</text><text fill="#000000" font-family="sans-serif" font-size="13" lengthAdjust="spacing" textLength="52" x="1289.5" y="1518.6309">循环调用</text><text fill="#000000" font-family="sans-serif" font-size="13" lengthAdjust="spacing" textLength="174" x="1289.5" y="1533.9414">addApplicationListenerBean</text><line style="stroke:#A80036;stroke-width:1.0;" x1="1503.5" x2="1545.5" y1="1572.9941" y2="1572.9941"/><line style="stroke:#A80036;stroke-width:1.0;" x1="1545.5" x2="1545.5" y1="1572.9941" y2="1585.9941"/><line style="stroke:#A80036;stroke-width:1.0;" x1="1498.5" x2="1545.5" y1="1585.9941" y2="1585.9941"/><polygon fill="#A80036" points="1508.5,1581.9941,1498.5,1585.9941,1508.5,1589.9941,1504.5,1585.9941" style="stroke:#A80036;stroke-width:1.0;"/><text fill="#000000" font-family="sans-serif" font-size="13" font-weight="bold" lengthAdjust="spacing" textLength="21" x="1510.5" y="1568.252">7.8</text><text fill="#000000" font-family="sans-serif" font-size="13" lengthAdjust="spacing" textLength="157" x="1535.5" y="1568.252">this.defaultRetriever 追加</text><text fill="#888888" font-family="sans-serif" font-size="10" lengthAdjust="spacing" textLength="61" x="1653.5" y="14.668">@ReionChan</text><text fill="#888888" font-family="sans-serif" font-size="10" lengthAdjust="spacing" textLength="61" x="826.75" y="1658.1504">@ReionChan</text></g></svg>