<?xml version="1.0" encoding="UTF-8" standalone="no"?><svg xmlns="http://www.w3.org/2000/svg" xmlns:xlink="http://www.w3.org/1999/xlink" contentScriptType="application/ecmascript" contentStyleType="text/css" height="1382px" preserveAspectRatio="none" style="width:1696px;height:1382px;" version="1.1" viewBox="0 0 1696 1382" width="1696px" zoomAndPan="magnify"><defs><filter height="300%" id="f73sxbvyfbg3" width="300%" x="-1" y="-1"><feGaussianBlur result="blurOut" stdDeviation="2.0"/><feColorMatrix in="blurOut" result="blurOut2" type="matrix" values="0 0 0 0 0 0 0 0 0 0 0 0 0 0 0 0 0 0 .4 0"/><feOffset dx="4.0" dy="4.0" in="blurOut2" result="blurOut3"/><feBlend in="SourceGraphic" in2="blurOut3" mode="normal"/></filter></defs><g><rect fill="#90EE90" height="1339.9102" style="stroke:#A80036;stroke-width:1.0;" width="880.5" x="16" y="20.7773"/><text fill="#000000" font-family="sans-serif" font-size="25" font-weight="bold" lengthAdjust="spacing" textLength="148" x="382.25" y="44.9473">Spring Boot</text><rect fill="#FFC0CB" height="1339.9102" style="stroke:#A80036;stroke-width:1.0;" width="501.5" x="1103" y="20.7773"/><text fill="#000000" font-family="sans-serif" font-size="25" font-weight="bold" lengthAdjust="spacing" textLength="234" x="1236.75" y="44.9473">Spring Framework</text><rect fill="#FFFFFF" filter="url(#f73sxbvyfbg3)" height="105.9316" style="stroke:#A80036;stroke-width:1.0;" width="10" x="85.5" y="153.3301"/><rect fill="#FFFFFF" filter="url(#f73sxbvyfbg3)" height="123.2422" style="stroke:#A80036;stroke-width:1.0;" width="10" x="85.5" y="598.0566"/><rect fill="#FFFFFF" filter="url(#f73sxbvyfbg3)" height="211.8633" style="stroke:#A80036;stroke-width:1.0;" width="10" x="505.5" y="318.5723"/><rect fill="#0000FF" filter="url(#f73sxbvyfbg3)" height="29.3105" style="stroke:#A80036;stroke-width:1.0;" width="10" x="760.5" y="347.8828"/><rect fill="#FFFFFF" filter="url(#f73sxbvyfbg3)" height="516.2793" style="stroke:#A80036;stroke-width:1.0;" width="10" x="1177.5" y="796.9199"/><rect fill="#FF5533" filter="url(#f73sxbvyfbg3)" height="439.6582" style="stroke:#A80036;stroke-width:1.0;" width="10" x="1468.5" y="873.541"/><rect fill="#FFFFFF" filter="url(#f73sxbvyfbg3)" height="438.7266" style="stroke:#000000;stroke-width:2.0;" width="956.5" x="10" y="106.709"/><rect fill="#FFFFFF" filter="url(#f73sxbvyfbg3)" height="176.8633" style="stroke:#000000;stroke-width:2.0;" width="1414.5" x="10" y="559.4355"/><rect fill="#FFFFFF" filter="url(#f73sxbvyfbg3)" height="160.5527" style="stroke:#000000;stroke-width:2.0;" width="513.5" x="1097" y="750.2988"/><rect fill="#FFFFFF" filter="url(#f73sxbvyfbg3)" height="380.3477" style="stroke:#000000;stroke-width:2.0;" width="778.5" x="901" y="924.8516"/><line style="stroke:#A80036;stroke-width:1.0;stroke-dasharray:5.0,5.0;" x1="90" x2="90" y1="89.709" y2="1322.1992"/><line style="stroke:#A80036;stroke-width:1.0;stroke-dasharray:5.0,5.0;" x1="321.5" x2="321.5" y1="89.709" y2="1322.1992"/><line style="stroke:#A80036;stroke-width:1.0;stroke-dasharray:5.0,5.0;" x1="510.5" x2="510.5" y1="89.709" y2="1322.1992"/><line style="stroke:#A80036;stroke-width:1.0;stroke-dasharray:5.0,5.0;" x1="765.5" x2="765.5" y1="89.709" y2="1322.1992"/><line style="stroke:#A80036;stroke-width:1.0;stroke-dasharray:5.0,5.0;" x1="961" x2="961" y1="89.709" y2="1322.1992"/><line style="stroke:#A80036;stroke-width:1.0;stroke-dasharray:5.0,5.0;" x1="1182" x2="1182" y1="89.709" y2="1322.1992"/><line style="stroke:#A80036;stroke-width:1.0;stroke-dasharray:5.0,5.0;" x1="1473.5" x2="1473.5" y1="89.709" y2="1322.1992"/><rect fill="#FEFECE" filter="url(#f73sxbvyfbg3)" height="30.4883" style="stroke:#A80036;stroke-width:1.5;" width="137" x="20" y="54.2207"/><text fill="#000000" font-family="sans-serif" font-size="14" lengthAdjust="spacing" textLength="123" x="27" y="74.7559">SpringApplication</text><rect fill="#FEFECE" filter="url(#f73sxbvyfbg3)" height="30.4883" style="stroke:#A80036;stroke-width:1.5;" width="137" x="20" y="1321.1992"/><text fill="#000000" font-family="sans-serif" font-size="14" lengthAdjust="spacing" textLength="123" x="27" y="1341.7344">SpringApplication</text><rect fill="#FEFECE" filter="url(#f73sxbvyfbg3)" height="30.4883" style="stroke:#A80036;stroke-width:1.5;" width="146" x="246.5" y="54.2207"/><text fill="#000000" font-family="sans-serif" font-size="14" lengthAdjust="spacing" textLength="132" x="253.5" y="74.7559">ApplicationListener</text><rect fill="#FEFECE" filter="url(#f73sxbvyfbg3)" height="30.4883" style="stroke:#A80036;stroke-width:1.5;" width="146" x="246.5" y="1321.1992"/><text fill="#000000" font-family="sans-serif" font-size="14" lengthAdjust="spacing" textLength="132" x="253.5" y="1341.7344">ApplicationListener</text><rect fill="#FEFECE" filter="url(#f73sxbvyfbg3)" height="30.4883" style="stroke:#A80036;stroke-width:1.5;" width="204" x="406.5" y="54.2207"/><text fill="#000000" font-family="sans-serif" font-size="14" lengthAdjust="spacing" textLength="190" x="413.5" y="74.7559">EventPublishingRunListener</text><rect fill="#FEFECE" filter="url(#f73sxbvyfbg3)" height="30.4883" style="stroke:#A80036;stroke-width:1.5;" width="204" x="406.5" y="1321.1992"/><text fill="#000000" font-family="sans-serif" font-size="14" lengthAdjust="spacing" textLength="190" x="413.5" y="1341.7344">EventPublishingRunListener</text><rect fill="#ADD8E6" filter="url(#f73sxbvyfbg3)" height="30.4883" style="stroke:#A80036;stroke-width:1.5;" width="250" x="638.5" y="54.2207"/><text fill="#000000" font-family="sans-serif" font-size="14" lengthAdjust="spacing" textLength="236" x="645.5" y="74.7559">SimpleApplicationEventMulticaster</text><rect fill="#ADD8E6" filter="url(#f73sxbvyfbg3)" height="30.4883" style="stroke:#A80036;stroke-width:1.5;" width="250" x="638.5" y="1321.1992"/><text fill="#000000" font-family="sans-serif" font-size="14" lengthAdjust="spacing" textLength="236" x="645.5" y="1341.7344">SimpleApplicationEventMulticaster</text><rect fill="#FEFECE" filter="url(#f73sxbvyfbg3)" height="30.4883" style="stroke:#A80036;stroke-width:1.5;" width="97" x="911" y="54.2207"/><text fill="#000000" font-family="sans-serif" font-size="14" lengthAdjust="spacing" textLength="83" x="918" y="74.7559">BeanFactory</text><rect fill="#FEFECE" filter="url(#f73sxbvyfbg3)" height="30.4883" style="stroke:#A80036;stroke-width:1.5;" width="97" x="911" y="1321.1992"/><text fill="#000000" font-family="sans-serif" font-size="14" lengthAdjust="spacing" textLength="83" x="918" y="1341.7344">BeanFactory</text><rect fill="#FEFECE" filter="url(#f73sxbvyfbg3)" height="30.4883" style="stroke:#A80036;stroke-width:1.5;" width="147" x="1107" y="54.2207"/><text fill="#000000" font-family="sans-serif" font-size="14" lengthAdjust="spacing" textLength="133" x="1114" y="74.7559">ApplicationContext</text><rect fill="#FEFECE" filter="url(#f73sxbvyfbg3)" height="30.4883" style="stroke:#A80036;stroke-width:1.5;" width="147" x="1107" y="1321.1992"/><text fill="#000000" font-family="sans-serif" font-size="14" lengthAdjust="spacing" textLength="133" x="1114" y="1341.7344">ApplicationContext</text><rect fill="#FF5533" filter="url(#f73sxbvyfbg3)" height="30.4883" style="stroke:#A80036;stroke-width:1.5;" width="250" x="1346.5" y="54.2207"/><text fill="#000000" font-family="sans-serif" font-size="14" lengthAdjust="spacing" textLength="236" x="1353.5" y="74.7559">SimpleApplicationEventMulticaster</text><rect fill="#FF5533" filter="url(#f73sxbvyfbg3)" height="30.4883" style="stroke:#A80036;stroke-width:1.5;" width="250" x="1346.5" y="1321.1992"/><text fill="#000000" font-family="sans-serif" font-size="14" lengthAdjust="spacing" textLength="236" x="1353.5" y="1341.7344">SimpleApplicationEventMulticaster</text><rect fill="#FFFFFF" filter="url(#f73sxbvyfbg3)" height="105.9316" style="stroke:#A80036;stroke-width:1.0;" width="10" x="85.5" y="153.3301"/><rect fill="#FFFFFF" filter="url(#f73sxbvyfbg3)" height="123.2422" style="stroke:#A80036;stroke-width:1.0;" width="10" x="85.5" y="598.0566"/><rect fill="#FFFFFF" filter="url(#f73sxbvyfbg3)" height="211.8633" style="stroke:#A80036;stroke-width:1.0;" width="10" x="505.5" y="318.5723"/><rect fill="#0000FF" filter="url(#f73sxbvyfbg3)" height="29.3105" style="stroke:#A80036;stroke-width:1.0;" width="10" x="760.5" y="347.8828"/><rect fill="#FFFFFF" filter="url(#f73sxbvyfbg3)" height="516.2793" style="stroke:#A80036;stroke-width:1.0;" width="10" x="1177.5" y="796.9199"/><rect fill="#FF5533" filter="url(#f73sxbvyfbg3)" height="439.6582" style="stroke:#A80036;stroke-width:1.0;" width="10" x="1468.5" y="873.541"/><path d="M10,106.709 L270,106.709 L270,113.709 L260,123.709 L10,123.709 L10,106.709 " fill="#FFD700" style="stroke:#000000;stroke-width:1.0;"/><rect fill="none" height="438.7266" style="stroke:#000000;stroke-width:2.0;" width="956.5" x="10" y="106.709"/><text fill="#000000" font-family="sans-serif" font-size="13" font-weight="bold" lengthAdjust="spacing" textLength="215" x="25" y="120.2773">① Spring Boot 监听器添加到广播器</text><line style="stroke:#A80036;stroke-width:1.0;" x1="90.5" x2="137.5" y1="140.3301" y2="140.3301"/><line style="stroke:#A80036;stroke-width:1.0;" x1="137.5" x2="137.5" y1="140.3301" y2="153.3301"/><line style="stroke:#A80036;stroke-width:1.0;" x1="96.5" x2="137.5" y1="153.3301" y2="153.3301"/><polygon fill="#A80036" points="106.5,149.3301,96.5,153.3301,106.5,157.3301,102.5,153.3301" style="stroke:#A80036;stroke-width:1.0;"/><text fill="#000000" font-family="sans-serif" font-size="13" font-weight="bold" lengthAdjust="spacing" textLength="21" x="102.5" y="135.5879">1.1</text><text fill="#000000" font-family="sans-serif" font-size="13" lengthAdjust="spacing" textLength="54" x="127.5" y="135.5879">initialize</text><polygon fill="#A80036" points="309.5,183.6406,319.5,187.6406,309.5,191.6406,313.5,187.6406" style="stroke:#A80036;stroke-width:1.0;"/><line style="stroke:#A80036;stroke-width:1.0;" x1="95.5" x2="315.5" y1="187.6406" y2="187.6406"/><text fill="#000000" font-family="sans-serif" font-size="13" font-weight="bold" lengthAdjust="spacing" textLength="21" x="102.5" y="182.8984">1.2</text><text fill="#000000" font-family="sans-serif" font-size="13" lengthAdjust="spacing" textLength="177" x="127.5" y="182.8984">getSpringFactoriesInstances</text><line style="stroke:#A80036;stroke-width:1.0;" x1="321.5" x2="363.5" y1="216.9512" y2="216.9512"/><line style="stroke:#A80036;stroke-width:1.0;" x1="363.5" x2="363.5" y1="216.9512" y2="229.9512"/><line style="stroke:#A80036;stroke-width:1.0;" x1="322.5" x2="363.5" y1="229.9512" y2="229.9512"/><polygon fill="#A80036" points="332.5,225.9512,322.5,229.9512,332.5,233.9512,328.5,229.9512" style="stroke:#A80036;stroke-width:1.0;"/><text fill="#000000" font-family="sans-serif" font-size="13" font-weight="bold" lengthAdjust="spacing" textLength="21" x="328.5" y="212.209">1.3</text><text fill="#000000" font-family="sans-serif" font-size="13" lengthAdjust="spacing" textLength="99" x="353.5" y="212.209">spring.factories</text><polygon fill="#A80036" points="101.5,255.2617,91.5,259.2617,101.5,263.2617,97.5,259.2617" style="stroke:#A80036;stroke-width:1.0;"/><line style="stroke:#A80036;stroke-width:1.0;" x1="95.5" x2="320.5" y1="259.2617" y2="259.2617"/><text fill="#000000" font-family="sans-serif" font-size="13" font-weight="bold" lengthAdjust="spacing" textLength="21" x="107.5" y="254.5195">1.4</text><text fill="#000000" font-family="sans-serif" font-size="13" lengthAdjust="spacing" textLength="112" x="132.5" y="254.5195">赋值 this.listeners</text><polygon fill="#A80036" points="493.5,314.5723,503.5,318.5723,493.5,322.5723,497.5,318.5723" style="stroke:#A80036;stroke-width:1.0;"/><line style="stroke:#A80036;stroke-width:1.0;" x1="90.5" x2="499.5" y1="318.5723" y2="318.5723"/><text fill="#000000" font-family="sans-serif" font-size="13" font-weight="bold" lengthAdjust="spacing" textLength="21" x="97.5" y="313.8301">2.1</text><text fill="#000000" font-family="sans-serif" font-size="13" lengthAdjust="spacing" textLength="131" x="122.5" y="313.8301">getRunListeners 构造</text><polygon fill="#A80036" points="748.5,343.8828,758.5,347.8828,748.5,351.8828,752.5,347.8828" style="stroke:#A80036;stroke-width:1.0;"/><line style="stroke:#A80036;stroke-width:1.0;" x1="515.5" x2="754.5" y1="347.8828" y2="347.8828"/><text fill="#000000" font-family="sans-serif" font-size="13" font-weight="bold" lengthAdjust="spacing" textLength="21" x="522.5" y="343.1406">2.2</text><text fill="#000000" font-family="sans-serif" font-size="13" lengthAdjust="spacing" textLength="25" x="547.5" y="343.1406">new</text><polygon fill="#A80036" points="526.5,373.1934,516.5,377.1934,526.5,381.1934,522.5,377.1934" style="stroke:#A80036;stroke-width:1.0;"/><line style="stroke:#A80036;stroke-width:1.0;stroke-dasharray:2.0,2.0;" x1="520.5" x2="764.5" y1="377.1934" y2="377.1934"/><text fill="#000000" font-family="sans-serif" font-size="13" font-weight="bold" lengthAdjust="spacing" textLength="21" x="532.5" y="372.4512">2.3</text><text fill="#000000" font-family="sans-serif" font-size="13" lengthAdjust="spacing" textLength="129" x="557.5" y="372.4512">赋值 this.multicaster</text><polygon fill="#A80036" points="101.5,432.5039,91.5,436.5039,101.5,440.5039,97.5,436.5039" style="stroke:#A80036;stroke-width:1.0;"/><line style="stroke:#A80036;stroke-width:1.0;" x1="95.5" x2="504.5" y1="436.5039" y2="436.5039"/><text fill="#000000" font-family="sans-serif" font-size="13" font-weight="bold" lengthAdjust="spacing" textLength="21" x="107.5" y="431.7617">3.1</text><text fill="#000000" font-family="sans-serif" font-size="13" lengthAdjust="spacing" textLength="77" x="132.5" y="431.7617">getListeners</text><polygon fill="#A80036" points="493.5,461.8145,503.5,465.8145,493.5,469.8145,497.5,465.8145" style="stroke:#A80036;stroke-width:1.0;"/><line style="stroke:#A80036;stroke-width:1.0;" x1="90.5" x2="499.5" y1="465.8145" y2="465.8145"/><text fill="#000000" font-family="sans-serif" font-size="13" font-weight="bold" lengthAdjust="spacing" textLength="21" x="97.5" y="461.0723">3.2</text><text fill="#000000" font-family="sans-serif" font-size="13" lengthAdjust="spacing" textLength="112" x="122.5" y="461.0723">返回 this.listeners</text><polygon fill="#A80036" points="753.5,491.125,763.5,495.125,753.5,499.125,757.5,495.125" style="stroke:#A80036;stroke-width:1.0;"/><line style="stroke:#A80036;stroke-width:1.0;" x1="515.5" x2="759.5" y1="495.125" y2="495.125"/><text fill="#000000" font-family="sans-serif" font-size="13" font-weight="bold" lengthAdjust="spacing" textLength="21" x="522.5" y="490.3828">3.3</text><text fill="#000000" font-family="sans-serif" font-size="13" lengthAdjust="spacing" textLength="201" x="547.5" y="490.3828">循环调用 addApplicationListener</text><line style="stroke:#A80036;stroke-width:1.0;" x1="765.5" x2="807.5" y1="529.4355" y2="529.4355"/><line style="stroke:#A80036;stroke-width:1.0;" x1="807.5" x2="807.5" y1="529.4355" y2="542.4355"/><line style="stroke:#A80036;stroke-width:1.0;" x1="760.5" x2="807.5" y1="542.4355" y2="542.4355"/><polygon fill="#A80036" points="770.5,538.4355,760.5,542.4355,770.5,546.4355,766.5,542.4355" style="stroke:#A80036;stroke-width:1.0;"/><text fill="#000000" font-family="sans-serif" font-size="13" font-weight="bold" lengthAdjust="spacing" textLength="21" x="772.5" y="524.6934">3.4</text><text fill="#000000" font-family="sans-serif" font-size="13" lengthAdjust="spacing" textLength="157" x="797.5" y="524.6934">this.defaultRetriever 追加</text><path d="M10,559.4355 L364,559.4355 L364,566.4355 L354,576.4355 L10,576.4355 L10,559.4355 " fill="#FFD700" style="stroke:#000000;stroke-width:1.0;"/><rect fill="none" height="176.8633" style="stroke:#000000;stroke-width:2.0;" width="1414.5" x="10" y="559.4355"/><text fill="#000000" font-family="sans-serif" font-size="13" font-weight="bold" lengthAdjust="spacing" textLength="309" x="25" y="573.0039">② Spring Boot 监听器添加到 ApplicationContext</text><polygon fill="#A80036" points="498.5,594.0566,508.5,598.0566,498.5,602.0566,502.5,598.0566" style="stroke:#A80036;stroke-width:1.0;"/><line style="stroke:#A80036;stroke-width:1.0;" x1="95.5" x2="504.5" y1="598.0566" y2="598.0566"/><text fill="#000000" font-family="sans-serif" font-size="13" font-weight="bold" lengthAdjust="spacing" textLength="21" x="102.5" y="593.3145">4.1</text><text fill="#000000" font-family="sans-serif" font-size="13" lengthAdjust="spacing" textLength="93" x="127.5" y="593.3145">contextLoaded</text><polygon fill="#A80036" points="106.5,623.3672,96.5,627.3672,106.5,631.3672,102.5,627.3672" style="stroke:#A80036;stroke-width:1.0;"/><line style="stroke:#A80036;stroke-width:1.0;" x1="100.5" x2="509.5" y1="627.3672" y2="627.3672"/><text fill="#000000" font-family="sans-serif" font-size="13" font-weight="bold" lengthAdjust="spacing" textLength="21" x="112.5" y="622.625">4.2</text><text fill="#000000" font-family="sans-serif" font-size="13" lengthAdjust="spacing" textLength="77" x="137.5" y="622.625">getListeners</text><polygon fill="#A80036" points="498.5,652.6777,508.5,656.6777,498.5,660.6777,502.5,656.6777" style="stroke:#A80036;stroke-width:1.0;"/><line style="stroke:#A80036;stroke-width:1.0;" x1="95.5" x2="504.5" y1="656.6777" y2="656.6777"/><text fill="#000000" font-family="sans-serif" font-size="13" font-weight="bold" lengthAdjust="spacing" textLength="21" x="102.5" y="651.9355">4.3</text><text fill="#000000" font-family="sans-serif" font-size="13" lengthAdjust="spacing" textLength="112" x="127.5" y="651.9355">返回 this.listeners</text><polygon fill="#A80036" points="1170.5,681.9883,1180.5,685.9883,1170.5,689.9883,1174.5,685.9883" style="stroke:#A80036;stroke-width:1.0;"/><line style="stroke:#A80036;stroke-width:1.0;" x1="510.5" x2="1176.5" y1="685.9883" y2="685.9883"/><text fill="#000000" font-family="sans-serif" font-size="13" font-weight="bold" lengthAdjust="spacing" textLength="21" x="517.5" y="681.2461">4.4</text><text fill="#000000" font-family="sans-serif" font-size="13" lengthAdjust="spacing" textLength="201" x="542.5" y="681.2461">循环调用 addApplicationListener</text><line style="stroke:#A80036;stroke-width:1.0;" x1="1182.5" x2="1224.5" y1="720.2988" y2="720.2988"/><line style="stroke:#A80036;stroke-width:1.0;" x1="1224.5" x2="1224.5" y1="720.2988" y2="733.2988"/><line style="stroke:#A80036;stroke-width:1.0;" x1="1177.5" x2="1224.5" y1="733.2988" y2="733.2988"/><polygon fill="#A80036" points="1187.5,729.2988,1177.5,733.2988,1187.5,737.2988,1183.5,733.2988" style="stroke:#A80036;stroke-width:1.0;"/><text fill="#000000" font-family="sans-serif" font-size="13" font-weight="bold" lengthAdjust="spacing" textLength="21" x="1189.5" y="715.5566">4.5</text><text fill="#000000" font-family="sans-serif" font-size="13" lengthAdjust="spacing" textLength="198" x="1214.5" y="715.5566">添加到 this.applicationListeners</text><path d="M1097,750.2988 L1237,750.2988 L1237,757.2988 L1227,767.2988 L1097,767.2988 L1097,750.2988 " fill="#FFD700" style="stroke:#000000;stroke-width:1.0;"/><rect fill="none" height="160.5527" style="stroke:#000000;stroke-width:2.0;" width="513.5" x="1097" y="750.2988"/><text fill="#000000" font-family="sans-serif" font-size="13" font-weight="bold" lengthAdjust="spacing" textLength="95" x="1112" y="763.8672">③ 初始化广播器</text><line style="stroke:#A80036;stroke-width:1.0;" x1="1182.5" x2="1229.5" y1="783.9199" y2="783.9199"/><line style="stroke:#A80036;stroke-width:1.0;" x1="1229.5" x2="1229.5" y1="783.9199" y2="796.9199"/><line style="stroke:#A80036;stroke-width:1.0;" x1="1188.5" x2="1229.5" y1="796.9199" y2="796.9199"/><polygon fill="#A80036" points="1198.5,792.9199,1188.5,796.9199,1198.5,800.9199,1194.5,796.9199" style="stroke:#A80036;stroke-width:1.0;"/><text fill="#000000" font-family="sans-serif" font-size="13" font-weight="bold" lengthAdjust="spacing" textLength="21" x="1194.5" y="779.1777">5.1</text><text fill="#000000" font-family="sans-serif" font-size="13" lengthAdjust="spacing" textLength="44" x="1219.5" y="779.1777">refresh</text><line style="stroke:#A80036;stroke-width:1.0;" x1="1187.5" x2="1229.5" y1="831.2305" y2="831.2305"/><line style="stroke:#A80036;stroke-width:1.0;" x1="1229.5" x2="1229.5" y1="831.2305" y2="844.2305"/><line style="stroke:#A80036;stroke-width:1.0;" x1="1188.5" x2="1229.5" y1="844.2305" y2="844.2305"/><polygon fill="#A80036" points="1198.5,840.2305,1188.5,844.2305,1198.5,848.2305,1194.5,844.2305" style="stroke:#A80036;stroke-width:1.0;"/><text fill="#000000" font-family="sans-serif" font-size="13" font-weight="bold" lengthAdjust="spacing" textLength="21" x="1194.5" y="826.4883">5.2</text><text fill="#000000" font-family="sans-serif" font-size="13" lengthAdjust="spacing" textLength="197" x="1219.5" y="826.4883">initApplicationEventMulticaster</text><polygon fill="#A80036" points="1456.5,869.541,1466.5,873.541,1456.5,877.541,1460.5,873.541" style="stroke:#A80036;stroke-width:1.0;"/><line style="stroke:#A80036;stroke-width:1.0;" x1="1187.5" x2="1462.5" y1="873.541" y2="873.541"/><text fill="#000000" font-family="sans-serif" font-size="13" font-weight="bold" lengthAdjust="spacing" textLength="21" x="1194.5" y="868.7988">5.3</text><text fill="#000000" font-family="sans-serif" font-size="13" lengthAdjust="spacing" textLength="25" x="1219.5" y="868.7988">new</text><polygon fill="#FF5533" points="1198.5,898.8516,1188.5,902.8516,1198.5,906.8516,1194.5,902.8516" style="stroke:#FF5533;stroke-width:1.0;"/><line style="stroke:#FF5533;stroke-width:1.0;" x1="1192.5" x2="1467.5" y1="902.8516" y2="902.8516"/><text fill="#000000" font-family="sans-serif" font-size="13" font-weight="bold" lengthAdjust="spacing" textLength="21" x="1204.5" y="898.1094">5.4</text><text fill="#000000" font-family="sans-serif" font-size="13" lengthAdjust="spacing" textLength="232" x="1229.5" y="898.1094">赋值 this.applicationEventMulticaster</text><path d="M901,924.8516 L1128,924.8516 L1128,931.8516 L1118,941.8516 L901,941.8516 L901,924.8516 " fill="#FFD700" style="stroke:#000000;stroke-width:1.0;"/><rect fill="none" height="380.3477" style="stroke:#000000;stroke-width:2.0;" width="778.5" x="901" y="924.8516"/><text fill="#000000" font-family="sans-serif" font-size="13" font-weight="bold" lengthAdjust="spacing" textLength="182" x="916" y="938.4199">④ Spring 监听器添加到广播器</text><line style="stroke:#A80036;stroke-width:1.0;" x1="1187.5" x2="1229.5" y1="963.4727" y2="963.4727"/><line style="stroke:#A80036;stroke-width:1.0;" x1="1229.5" x2="1229.5" y1="963.4727" y2="976.4727"/><line style="stroke:#A80036;stroke-width:1.0;" x1="1188.5" x2="1229.5" y1="976.4727" y2="976.4727"/><polygon fill="#A80036" points="1198.5,972.4727,1188.5,976.4727,1198.5,980.4727,1194.5,976.4727" style="stroke:#A80036;stroke-width:1.0;"/><text fill="#000000" font-family="sans-serif" font-size="13" font-weight="bold" lengthAdjust="spacing" textLength="21" x="1194.5" y="958.7305">6.1</text><text fill="#000000" font-family="sans-serif" font-size="13" lengthAdjust="spacing" textLength="105" x="1219.5" y="958.7305">registerListeners</text><line style="stroke:#A80036;stroke-width:1.0;" x1="1187.5" x2="1229.5" y1="1021.0938" y2="1021.0938"/><line style="stroke:#A80036;stroke-width:1.0;" x1="1229.5" x2="1229.5" y1="1021.0938" y2="1034.0938"/><line style="stroke:#A80036;stroke-width:1.0;" x1="1188.5" x2="1229.5" y1="1034.0938" y2="1034.0938"/><polygon fill="#A80036" points="1198.5,1030.0938,1188.5,1034.0938,1198.5,1038.0938,1194.5,1034.0938" style="stroke:#A80036;stroke-width:1.0;"/><text fill="#000000" font-family="sans-serif" font-size="13" font-weight="bold" lengthAdjust="spacing" textLength="21" x="1194.5" y="1008.6963">6.2</text><text fill="#000000" font-family="sans-serif" font-size="13" lengthAdjust="spacing" textLength="149" x="1219.5" y="1001.041">getApplicationListeners</text><text fill="#000000" font-family="sans-serif" font-size="13" lengthAdjust="spacing" textLength="185" x="1219.5" y="1016.3516">获取 this.applicationListeners</text><polygon fill="#A80036" points="1456.5,1074.7148,1466.5,1078.7148,1456.5,1082.7148,1460.5,1078.7148" style="stroke:#A80036;stroke-width:1.0;"/><line style="stroke:#A80036;stroke-width:1.0;" x1="1187.5" x2="1462.5" y1="1078.7148" y2="1078.7148"/><text fill="#000000" font-family="sans-serif" font-size="13" font-weight="bold" lengthAdjust="spacing" textLength="21" x="1194.5" y="1066.3174">6.3</text><text fill="#000000" font-family="sans-serif" font-size="13" lengthAdjust="spacing" textLength="52" x="1219.5" y="1058.6621">循环调用</text><text fill="#000000" font-family="sans-serif" font-size="13" lengthAdjust="spacing" textLength="145" x="1219.5" y="1073.9727">addApplicationListener</text><line style="stroke:#A80036;stroke-width:1.0;" x1="1478.5" x2="1520.5" y1="1108.0254" y2="1108.0254"/><line style="stroke:#A80036;stroke-width:1.0;" x1="1520.5" x2="1520.5" y1="1108.0254" y2="1121.0254"/><line style="stroke:#A80036;stroke-width:1.0;" x1="1479.5" x2="1520.5" y1="1121.0254" y2="1121.0254"/><polygon fill="#A80036" points="1489.5,1117.0254,1479.5,1121.0254,1489.5,1125.0254,1485.5,1121.0254" style="stroke:#A80036;stroke-width:1.0;"/><text fill="#000000" font-family="sans-serif" font-size="13" font-weight="bold" lengthAdjust="spacing" textLength="21" x="1485.5" y="1103.2832">6.4</text><text fill="#000000" font-family="sans-serif" font-size="13" lengthAdjust="spacing" textLength="157" x="1510.5" y="1103.2832">this.defaultRetriever 追加</text><polygon fill="#A80036" points="972.5,1161.6465,962.5,1165.6465,972.5,1169.6465,968.5,1165.6465" style="stroke:#A80036;stroke-width:1.0;"/><line style="stroke:#A80036;stroke-width:1.0;" x1="966.5" x2="1176.5" y1="1165.6465" y2="1165.6465"/><text fill="#000000" font-family="sans-serif" font-size="13" font-weight="bold" lengthAdjust="spacing" textLength="21" x="978.5" y="1153.249">6.5</text><text fill="#000000" font-family="sans-serif" font-size="13" lengthAdjust="spacing" textLength="142" x="1003.5" y="1145.5938">getBeanNamesForType</text><text fill="#000000" font-family="sans-serif" font-size="13" lengthAdjust="spacing" textLength="167" x="1003.5" y="1160.9043">获取监听器类型的 Bean 名称</text><polygon fill="#A80036" points="1165.5,1206.2676,1175.5,1210.2676,1165.5,1214.2676,1169.5,1210.2676" style="stroke:#A80036;stroke-width:1.0;"/><line style="stroke:#A80036;stroke-width:1.0;" x1="961.5" x2="1171.5" y1="1210.2676" y2="1210.2676"/><text fill="#000000" font-family="sans-serif" font-size="13" font-weight="bold" lengthAdjust="spacing" textLength="21" x="968.5" y="1197.8701">6.6</text><text fill="#000000" font-family="sans-serif" font-size="13" lengthAdjust="spacing" textLength="152" x="993.5" y="1190.2148">返回 ApplicationListener</text><text fill="#000000" font-family="sans-serif" font-size="13" lengthAdjust="spacing" textLength="85" x="993.5" y="1205.5254">Bean 名称数组</text><polygon fill="#A80036" points="1456.5,1250.8887,1466.5,1254.8887,1456.5,1258.8887,1460.5,1254.8887" style="stroke:#A80036;stroke-width:1.0;"/><line style="stroke:#A80036;stroke-width:1.0;" x1="1187.5" x2="1462.5" y1="1254.8887" y2="1254.8887"/><text fill="#000000" font-family="sans-serif" font-size="13" font-weight="bold" lengthAdjust="spacing" textLength="21" x="1194.5" y="1242.4912">6.7</text><text fill="#000000" font-family="sans-serif" font-size="13" lengthAdjust="spacing" textLength="52" x="1219.5" y="1234.8359">循环调用</text><text fill="#000000" font-family="sans-serif" font-size="13" lengthAdjust="spacing" textLength="174" x="1219.5" y="1250.1465">addApplicationListenerBean</text><line style="stroke:#A80036;stroke-width:1.0;" x1="1478.5" x2="1520.5" y1="1284.1992" y2="1284.1992"/><line style="stroke:#A80036;stroke-width:1.0;" x1="1520.5" x2="1520.5" y1="1284.1992" y2="1297.1992"/><line style="stroke:#A80036;stroke-width:1.0;" x1="1479.5" x2="1520.5" y1="1297.1992" y2="1297.1992"/><polygon fill="#A80036" points="1489.5,1293.1992,1479.5,1297.1992,1489.5,1301.1992,1485.5,1297.1992" style="stroke:#A80036;stroke-width:1.0;"/><text fill="#000000" font-family="sans-serif" font-size="13" font-weight="bold" lengthAdjust="spacing" textLength="21" x="1485.5" y="1279.457">6.8</text><text fill="#000000" font-family="sans-serif" font-size="13" lengthAdjust="spacing" textLength="157" x="1510.5" y="1279.457">this.defaultRetriever 追加</text><text fill="#888888" font-family="sans-serif" font-size="10" lengthAdjust="spacing" textLength="61" x="1628.5" y="14.668">@ReionChan</text><text fill="#888888" font-family="sans-serif" font-size="10" lengthAdjust="spacing" textLength="61" x="814.25" y="1374.3555">@ReionChan</text></g></svg>